# xmcd CD database file
#
# Track frame offsets:
#	150
#	15935
#	34255
#	54732
#	71437
#	88985
#	112670
#	131447
#	146702
#	161787
#	175325
#	188345
#	203542
#
# Disc length: 2905 seconds
#
# Revision: 0
# Processed by: cddbd v1.5.1PL2 Copyright (c) Steve Scherf et al.
# Submitted via: CDex 1.51
#
DISCID=a80b570d
DTITLE=Sléttuúlfarnir - Undir bláum mána
DYEAR=1991
DGENRE=Country
TTITLE0=Sönn ást
TTITLE1=Eina stjarnan mín
TTITLE2=Er hjarta mitt slær
TTITLE3=Florida
TTITLE4=Ég bíð þín undir bláum mána
TTITLE5=Faðir við son
TTITLE6=Við erum ein
TTITLE7=Á sléttunni
TTITLE8=Lúsifer
TTITLE9=Hálfur úlfur, hálfur maður
TTITLE10=Hring eftir hring
TTITLE11=Ljóti lýðurinn
TTITLE12=Bláu augun þín
EXTD=YEAR: 1991
EXTT0=
EXTT1=
EXTT2=
EXTT3=
EXTT4=
EXTT5=
EXTT6=
EXTT7=
EXTT8=
EXTT9=
EXTT10=
EXTT11=
EXTT12=
PLAYORDER=
